<?xml version="1.0" encoding="UTF-8" standalone="no"?>
<!DOCTYPE svg PUBLIC "-//W3C//DTD SVG 1.1//EN" "http://www.w3.org/Graphics/SVG/1.1/DTD/svg11.dtd">
<svg width="100%" height="100%" viewBox="0 0 552 552" version="1.1" xmlns="http://www.w3.org/2000/svg" xmlns:xlink="http://www.w3.org/1999/xlink" xml:space="preserve" xmlns:serif="http://www.serif.com/" style="fill-rule:evenodd;clip-rule:evenodd;stroke-linejoin:round;stroke-miterlimit:2;">
    <g>
        <path d="M413.695,0C413.695,0 368.329,44.014 319.265,61.759C-44.068,193.178 109.165,449.277 114.164,450.121C114.164,450.121 134.538,414.641 162.06,394.404C336.704,266.015 372.2,118.233 372.2,118.233C372.2,118.233 333.01,296.062 177.638,406.712C143.322,431.138 120.086,491.28 110.25,551.391C110.25,551.391 134.575,541.563 145.035,538.901C149.114,512.283 157.642,486.795 172.06,464.026C389.211,489.88 460.332,314.903 469.623,253.89C491.552,109.79 413.695,0 413.695,0Z" style="fill:rgb(51,63,76);fill-rule:nonzero;"/>
    </g>
</svg>
